<svg version="1.2" xmlns="http://www.w3.org/2000/svg" viewBox="0 0 1980 1980" width="1080" height="1080">
	<style>
		.s0 { fill: #152328 } 
		.s1 { fill: #dbe890 } 
	</style>
	<path id="Shape 1" fill-rule="evenodd" class="s0" d="m990 1968c-540.83 0-978-437.17-978-978 0-540.83 437.17-978 978-978 540.83 0 978 437.17 978 978 0 540.83-437.17 978-978 978z"/>
	<g>
		<path class="s1" d="m1527.29 319.28c-108.25-16.07-492.52-47.48-891.56 223.96-86.5 63.94-159.37 133.18-216.58 205.88-59.04 74.97-98.7 150.33-118.05 223.96-10.27 39.2-14.55 77.67-12.86 114.41 1.84 38.8 10.52 75.98 25.65 110.42 15.16 34.47 36.71 65.96 64.12 93.48 25.9 26.08 57.21 48.89 93.05 67.73 36.78 19.41 78.5 34.72 124.11 45.68 4.28 16.82 10.01 33.39 17.07 49.38 23.99 54.51 62.18 100.44 113.44 136.61 47.7 33.57 104.58 57.13 169.1 70.03 36.74 7.31 75.36 11.02 114.84 11.02 228.5 0 394-197.63 422.71-246.55 4.29-7.31 3.17-16.06-2.81-21.32-6.27-5.41-15.53-5.33-22.51 0.21l-0.26 0.18c-44.52 36.96-95.42 68.16-151.19 92.8-57.82 25.51-117.37 42.26-176.84 49.75-56.56 7.21-110.49 5.8-160.38-4.14-87.51-17.44-153.03-59.48-187.04-119.24q5.48 0 10.95 0.03c275.95 0 493.35-153.57 588.53-309.98 53.49-87.97 65.6-171.44 33.14-229.15-19.34-34.37-63.94-75.4-166.61-75.4-132.43 0-272.16 43.59-383.23 119.53-89.52 61.17-200 171.08-225.65 349.5-22.19-7.13-42.73-15.7-61.35-25.47-49.79-26.19-84.48-60.91-103.14-103.24-18.66-42.33-20.86-91.36-6.55-145.79 15.13-57.5 47.44-118.12 96.18-180.05 50.61-64.23 115.67-125.98 193.59-183.54 333.34-249.61 653.88-276.38 815.19-270.15 13.23 0.76 24.5-8.93 26.23-22.05 1.8-13.72-7.82-26.51-21.51-28.53zm-519.72 646.21c24.39-7.53 46.37-11.32 64.59-11.32 22.66 0 39.38 5.77 47.3 17.33l0.11 0.11c20.1 28.42 24.46 91.61-7.17 152.78-33.46 64.63-130.48 172.48-406.2 175.76 8.5-166.9 182.75-297.74 301.37-334.66z"/>
		<path class="s1" d="m1348.5 550.7c-28.93 0-56.12 11.13-76.8 31.41-43.09 42.4-43.73 111.97-1.41 155.05 20.57 20.89 47.95 32.57 77.24 32.82q0.5 0 1.01 0c28.93 0 56.16-11.17 76.8-31.45 43.09-42.4 43.74-111.93 1.41-155.01-20.54-20.93-47.95-32.53-77.24-32.82z"/>
	</g>
</svg>