<?xml version="1.0" encoding="UTF-8"?>
<svg id="logSIm" xmlns="http://www.w3.org/2000/svg" viewBox="0 0 2048 2048">
  <defs>
    <style>
      .cls-1 {
        fill: #152328;
      }

      .cls-2 {
        fill: #dbe890;
      }
    </style>
  </defs>
  <rect class="cls-1" x="148.85" y="148.85" width="1750.29" height="1750.29" rx="501.37" ry="501.37"/>
  <g>
    <path class="cls-2" d="M1573.57,418.14c-97.72-14.53-444.56-42.9-804.76,202.19-78.1,57.71-143.87,120.24-195.51,185.85-53.26,67.68-89.11,135.69-106.55,202.15-9.27,35.36-13.16,70.1-11.57,103.25,1.67,35.03,9.47,68.57,23.17,99.68,13.7,31.12,33.18,59.52,57.9,84.39,23.4,23.56,51.65,44.14,83.99,61.15,33.23,17.49,70.88,31.35,112.02,41.26,3.88,15.19,9.06,30.16,15.42,44.6,21.66,49.19,56.12,90.66,102.44,123.28,43.04,30.32,94.4,51.58,152.65,63.21,33.15,6.62,68.03,9.97,103.66,9.97,206.28,0,355.65-178.41,381.55-222.55,3.89-6.59,2.83-14.49-2.58-19.21-5.62-4.91-13.97-4.84-20.31.17l-.21.17c-40.21,33.38-86.14,61.55-136.5,83.74-52.23,23.01-105.93,38.14-159.6,44.95-51.05,6.49-99.76,5.22-144.76-3.77-78.97-15.77-138.15-53.68-168.85-107.64,3.31.04,6.6.07,9.9.07,249.09-.02,445.34-138.66,531.27-279.86,48.29-79.36,59.2-154.75,29.92-206.84-17.46-31.06-57.73-68.09-150.44-68.09-119.56,0-245.65,39.32-345.93,107.89-80.8,55.24-180.55,154.43-203.71,315.52-19.99-6.44-38.57-14.15-55.37-22.99-44.93-23.65-76.24-55.01-93.06-93.2-16.82-38.2-18.81-82.47-5.93-131.59,13.62-51.94,42.84-106.62,86.83-162.53,45.64-58.01,104.42-113.74,174.76-165.72,300.85-225.32,590.19-249.46,735.87-243.83,11.92.66,22.1-8.09,23.68-19.9,1.65-12.37-7.04-23.94-19.39-25.77ZM1104.41,1001.49c21.99-6.84,41.84-10.22,58.26-10.22,20.46,0,35.56,5.26,42.72,15.64l.09.12c18.17,25.62,22.06,82.67-6.49,137.91-30.17,58.37-117.78,155.69-366.67,158.64,7.67-150.61,164.95-268.74,272.09-302.09Z"/>
    <path class="cls-2" d="M1412.17,627c-26.1,0-50.68,10.05-69.32,28.37-38.92,38.25-39.48,101.03-1.24,139.95,18.52,18.86,43.28,29.37,69.71,29.61.3,0,.6,0,.9,0,26.1,0,50.69-10.06,69.33-28.37,38.92-38.25,39.47-101.03,1.24-139.96-18.52-18.85-43.28-29.37-69.71-29.61h-.9Z"/>
  </g>
</svg>