<svg version="1.2" xmlns="http://www.w3.org/2000/svg" viewBox="0 0 2048 720" width="2048" height="720">
	<style>
		.s0 { fill: #dbe890 } 
	</style>
	<g>
		<path class="s0" d="m388.76 226.49c-8.8 0-17.09 3.39-23.36 9.57-13.12 12.9-13.31 34.06-0.42 47.18 6.25 6.36 14.59 9.89 23.51 9.98q0.15 0 0.31 0c8.8 0 17.09-3.39 23.38-9.56 13.12-12.91 13.3-34.06 0.42-47.19-6.25-6.36-14.6-9.89-23.51-9.98 0 0-0.31 0-0.33 0z"/>
		<path class="s0" d="m443.18 156.09c-32.95-4.9-149.88-14.47-271.32 68.17-26.34 19.47-48.52 40.53-65.92 62.66-17.95 22.82-30.03 45.74-35.92 68.16-3.13 11.92-4.45 23.63-3.9 34.8 0.57 11.81 3.19 23.13 7.82 33.61 4.63 10.5 11.19 20.06 19.52 28.45 7.89 7.94 17.42 14.89 28.32 20.61 11.2 5.9 23.89 10.57 37.76 13.9 1.31 5.12 3.06 10.17 5.19 15.04 7.31 16.58 18.92 30.56 34.54 41.57 14.5 10.22 31.81 17.38 51.46 21.3 11.17 2.23 22.94 3.37 34.95 3.37 69.55 0 119.92-60.15 128.65-75.03 1.31-2.22 0.95-4.88-0.88-6.46-1.89-1.66-4.7-1.64-6.85 0.05l-0.07 0.05c-13.56 11.25-29.05 20.76-46.02 28.23-17.6 7.77-35.72 12.87-53.81 15.17-17.23 2.18-33.63 1.76-48.81-1.28-26.62-5.32-46.58-18.1-56.93-36.28q1.67 0.01 3.34 0.01c83.97 0 150.14-46.74 179.12-94.36 16.27-26.75 19.96-52.18 10.08-69.74-5.89-10.48-19.47-22.97-50.72-22.97-40.31 0-82.83 13.25-116.63 36.38-27.25 18.62-60.87 52.07-68.69 106.37-6.74-2.17-13.01-4.77-18.66-7.74-15.15-7.97-25.72-18.55-31.38-31.42-5.67-12.88-6.35-27.81-2.01-44.38 4.59-17.51 14.44-35.95 29.27-54.8 15.38-19.55 35.21-38.34 58.92-55.87 101.43-75.98 198.99-84.1 248.1-82.21 4.03 0.22 7.45-2.73 7.98-6.71 0.57-4.17-2.37-8.07-6.54-8.69zm-158.17 196.68c7.42-2.32 14.11-3.45 19.65-3.45 6.91 0 11.99 1.77 14.4 5.27l0.03 0.03c6.13 8.64 7.44 27.87-2.18 46.49-10.17 19.69-39.71 52.49-123.62 53.49 2.59-50.77 55.62-90.61 91.74-101.85z"/>
	</g>
	<path fill-rule="evenodd" class="s0" d="m575.67 543.66v-367.53h65.91v301.56h177.43v65.97h-243.34z"/>
	<path class="s0" d="m964.84 543.68q-1.22 0-2.44-0.02c-79.48 0-144.12-64.62-144.12-144.08 0-79.46 64.66-144.08 144.12-144.08 59.03 0 111.24 35.28 133.44 89.99l-191.25 110.4 20.34 11.32c11.45 6.36 24.35 9.71 37.36 9.71 22.93 0 45.23-10.59 59.87-28.39h67.44c-18.69 70.07-76.52 95.13-124.8 95.13zm-8.87-221.48c-42.01 0-76.8 34.08-77.56 75.98l-0.42 23.33 135.51-78.26-20.32-11.32c-11.62-6.47-24.14-9.75-37.21-9.75z"/>
	<path class="s0" d="m1239.72 544.59c-52.31 0-94.88-42.55-94.88-94.88v-13.19h-0.05v-115.74h-37.91v-65.92h37.91v-78.73h65.93v78.73h47.35v65.92h-47.35v128.93c0 15.7 13.25 28.94 28.94 28.94 1.04 0 2.33 0 3.72-0.12l29.96 60.43c-10.28 3.77-21.31 5.61-33.64 5.61z"/>
	<path class="s0" d="m1510.29 543.66v-57.92l-22.62 23.11c-21.98 22.45-50 34.83-78.93 34.83-66.9 0-121.31-64.77-121.31-144.41v-144.41h65.93v144.41c0 43.26 35.21 78.47 78.47 78.47 43.27 0 78.48-35.21 78.48-78.47v-144.41h65.91v288.8c0 0-65.91 0-65.93 0z"/>
	<path fill-rule="evenodd" class="s0" d="m1689.27 254.86v288.8h-65.92v-288.8z"/>
	<path class="s0" d="m1674.8 190.53c-4.85-4.94-11.34-7.69-18.26-7.74-6.91-0.04-13.45 2.57-18.39 7.43-10.19 10.01-10.33 26.44-0.33 36.65 4.85 4.94 11.34 7.69 18.26 7.75q0.12 0 0.24 0c6.83 0 13.27-2.63 18.15-7.44 10.19-10.01 10.33-26.44 0.33-36.65z"/>
	<path class="s0" d="m1679.95 185.54c-6.19-6.31-14.48-9.84-23.34-9.92-8.82-0.05-17.2 3.3-23.51 9.5-13.03 12.81-13.21 33.82-0.42 46.87 6.2 6.31 14.49 9.84 23.35 9.91q0.14 0 0.29 0c8.75 0 16.96-3.37 23.22-9.49 13.03-12.81 13.21-33.82 0.41-46.87z"/>
	<path class="s0" d="m1864.73 543.66c-79.62 0-144.41-64.77-144.41-144.41 0-79.64 64.77-144.41 144.41-144.41 46.67 0 90.55 22.84 117.8 61.16l-57.46 33.17c-14.84-17.82-37.27-28.41-60.32-28.41-43.27 0-78.48 35.21-78.48 78.47 0 43.27 35.21 78.48 78.48 78.48 23.01 0 45.45-10.59 60.32-28.41l57.48 33.18c-27.21 38.34-71.09 61.16-117.8 61.16z"/>
</svg>