<svg version="1.2" xmlns="http://www.w3.org/2000/svg" viewBox="0 0 2048 720" width="2048" height="720">
	<style>
		.s0 { fill: #152328 } 
		.s1 { fill: #dbe890 } 
	</style>
	<path fill-rule="evenodd" class="s0" d="m192.88 91h224.49c86.64 0 156.88 70.24 156.88 156.88v224.49c0 86.64-70.24 156.88-156.88 156.88h-224.49c-86.64 0-156.88-70.24-156.88-156.88v-224.49c0-86.64 70.24-156.88 156.88-156.88z"/>
	<g>
		<path class="s1" d="m474.12 173.8c-30.05-4.46-136.72-13.18-247.49 62.17-24.01 17.75-44.24 36.97-60.12 57.15-16.39 20.81-27.4 41.73-32.77 62.17-2.85 10.88-4.04 21.56-3.57 31.76 0.51 10.77 2.92 21.09 7.12 30.65 4.21 9.57 10.19 18.31 17.8 25.95 7.19 7.24 15.88 13.57 25.83 18.8 10.21 5.39 21.79 9.64 34.45 12.68 1.19 4.67 2.78 9.27 4.74 13.71 6.66 15.13 17.26 27.88 31.49 37.92 13.24 9.32 29.03 15.86 46.94 19.44 10.2 2.03 20.92 3.06 31.88 3.06 63.43 0 109.37-54.86 117.34-68.44 1.19-2.03 0.88-4.46-0.78-5.92-1.74-1.5-4.31-1.48-6.25 0.06l-0.07 0.05c-12.36 10.26-26.49 18.92-41.97 25.76-16.05 7.08-32.58 11.73-49.09 13.81-15.7 2-30.67 1.61-44.52-1.15-24.29-4.84-42.48-16.51-51.92-33.1q1.52 0 3.04 0.01c76.6 0 136.95-42.63 163.37-86.05 14.85-24.42 18.21-47.59 9.2-63.61-5.37-9.54-17.75-20.93-46.25-20.93-36.76 0-75.55 12.1-106.38 33.18-24.85 16.98-55.52 47.49-62.64 97.02-6.16-1.98-11.86-4.36-17.03-7.07-13.82-7.27-23.45-16.91-28.63-28.66-5.18-11.75-5.79-25.36-1.82-40.47 4.2-15.96 13.17-32.79 26.7-49.98 14.05-17.83 32.11-34.97 53.74-50.95 92.53-69.29 181.51-76.72 226.29-74.99 3.67 0.21 6.8-2.48 7.28-6.12 0.5-3.81-2.17-7.36-5.97-7.92zm-144.27 179.38c6.77-2.09 12.87-3.14 17.93-3.14 6.29 0 10.93 1.6 13.13 4.81l0.03 0.03c5.58 7.89 6.79 25.43-1.99 42.41-9.29 17.94-36.22 47.88-112.76 48.79 2.36-46.33 50.73-82.65 83.66-92.9z"/>
		<path class="s1" d="m424.49 238.04c-8.03 0-15.58 3.09-21.32 8.72-11.96 11.77-12.14 31.08-0.39 43.04 5.71 5.8 13.31 9.04 21.44 9.11q0.14 0 0.28 0c8.03 0 15.59-3.1 21.32-8.73 11.96-11.77 12.14-31.07 0.39-43.03-5.7-5.81-13.31-9.03-21.44-9.11z"/>
	</g>
	<path fill-rule="evenodd" class="s0" d="m662.16 536.25v-352.67h63.25v289.37h170.26v63.3h-233.51z"/>
	<path class="s0" d="m1035.61 536.27q-1.17 0-2.35-0.02c-76.26 0-138.29-62.01-138.29-138.26 0-76.24 62.05-138.25 138.29-138.25 56.65 0 106.75 33.85 128.05 86.35l-183.52 105.94 19.52 10.86c10.98 6.1 23.36 9.32 35.85 9.32 22 0 43.4-10.16 57.45-27.24h64.72c-17.95 67.24-73.43 91.28-119.76 91.28zm-8.51-212.53c-40.31 0-73.7 32.71-74.43 72.91l-0.4 22.38 130.03-75.09-19.49-10.86c-11.16-6.21-23.18-9.35-35.71-9.35z"/>
	<path class="s0" d="m1299.37 537.14c-50.19 0-91.04-40.83-91.04-91.04v-12.66h-0.05v-111.06h-36.37v-63.25h36.37v-75.55h63.27v75.55h45.43v63.25h-45.43v123.72c0 15.06 12.71 27.77 27.77 27.77 1 0 2.24 0 3.57-0.12l28.75 57.99c-9.87 3.62-20.45 5.39-32.29 5.39z"/>
	<path class="s0" d="m1559.01 536.25v-55.57l-21.7 22.17c-21.09 21.54-47.99 33.42-75.74 33.42-64.2 0-116.42-62.15-116.42-138.57v-138.57h63.27v138.57c0 41.51 33.79 75.3 75.31 75.3 41.51 0 75.3-33.79 75.3-75.3v-138.57h63.25v277.12c0 0-63.25 0-63.27 0z"/>
	<path fill-rule="evenodd" class="s0" d="m1730.76 259.13v277.12h-63.26v-277.12z"/>
	<path class="s1" d="m1716.87 197.39c-4.65-4.73-10.88-7.38-17.52-7.43-6.63-0.03-12.91 2.47-17.65 7.14-9.77 9.6-9.91 25.37-0.31 35.16 4.65 4.74 10.88 7.38 17.52 7.44q0.11 0 0.23 0c6.56 0 12.73-2.52 17.42-7.14 9.77-9.6 9.91-25.37 0.31-35.17z"/>
	<path class="s1" d="m1721.82 192.6c-5.95-6.05-13.9-9.44-22.4-9.51-8.47-0.05-16.51 3.16-22.56 9.11-12.5 12.29-12.68 32.46-0.4 44.98 5.94 6.05 13.9 9.44 22.4 9.51q0.14 0 0.28 0c8.39 0 16.28-3.23 22.28-9.11 12.5-12.29 12.68-32.46 0.4-44.98z"/>
	<path class="s0" d="m1899.13 536.25c-76.41 0-138.58-62.15-138.58-138.57 0-76.42 62.16-138.57 138.58-138.57 44.78 0 86.89 21.91 113.04 58.69l-55.14 31.82c-14.24-17.1-35.76-27.26-57.89-27.26-41.51 0-75.3 33.79-75.3 75.3 0 41.52 33.79 75.3 75.3 75.3 22.09 0 43.62-10.16 57.89-27.26l55.15 31.85c-26.11 36.79-68.22 58.68-113.04 58.68z"/>
</svg>