<?xml version="1.0" encoding="UTF-8"?>
<svg id="LOGO2" xmlns="http://www.w3.org/2000/svg" viewBox="0 0 2048 2048">
  <defs>
    <style>
      .cls-1 {
        fill: #152328;
      }

      .cls-2 {
        fill: #dbe890;
      }
    </style>
  </defs>
  <rect class="cls-1" x="489.81" y="877.75" width="307.79" height="307.79" rx="89.71" ry="89.71"/>
  <g>
    <path class="cls-2" d="M740.34,925.1c-17.18-2.55-78.18-7.54-141.52,35.55-13.73,10.15-25.3,21.14-34.38,32.68-9.37,11.9-15.67,23.86-18.74,35.55-1.63,6.22-2.31,12.33-2.04,18.16.29,6.16,1.67,12.06,4.07,17.53,2.41,5.47,5.83,10.47,10.18,14.84,4.11,4.14,9.08,7.76,14.77,10.75,5.84,3.08,12.46,5.51,19.7,7.25.68,2.67,1.59,5.3,2.71,7.84,3.81,8.65,9.87,15.94,18.01,21.68,7.57,5.33,16.6,9.07,26.84,11.12,5.83,1.16,11.96,1.75,18.23,1.75,36.27,0,62.54-31.37,67.1-39.14.68-1.16.5-2.55-.45-3.38-.99-.86-2.46-.85-3.57.03l-.04.03c-7.07,5.87-15.15,10.82-24,14.73-9.18,4.05-18.63,6.71-28.07,7.9-8.98,1.14-17.54.92-25.46-.66-13.89-2.77-24.29-9.44-29.69-18.93.58,0,1.16.01,1.74.01,43.8,0,78.31-24.38,93.42-49.21,8.49-13.96,10.41-27.21,5.26-36.37-3.07-5.46-10.15-11.97-26.45-11.97-21.02,0-43.2,6.92-60.83,18.97-14.21,9.71-31.75,27.16-35.82,55.48-3.52-1.13-6.78-2.49-9.74-4.04-7.9-4.16-13.41-9.67-16.37-16.39-2.96-6.72-3.31-14.5-1.04-23.14,2.4-9.13,7.53-18.75,15.27-28.58,8.03-10.2,18.36-20,30.73-29.14,52.91-39.62,103.79-43.87,129.4-42.88,2.1.12,3.89-1.42,4.16-3.5.29-2.18-1.24-4.21-3.41-4.53ZM657.84,1027.68c3.87-1.2,7.36-1.8,10.25-1.8,3.6,0,6.25.92,7.51,2.75l.02.02c3.19,4.51,3.88,14.54-1.14,24.25-5.31,10.26-20.71,27.38-64.48,27.9,1.35-26.49,29.01-47.26,47.85-53.12Z"/>
    <path class="cls-2" d="M711.96,961.83c-4.59,0-8.91,1.77-12.19,4.99-6.84,6.73-6.94,17.77-.22,24.61,3.26,3.32,7.61,5.17,12.26,5.21.05,0,.11,0,.16,0,4.59,0,8.91-1.77,12.19-4.99,6.84-6.73,6.94-17.77.22-24.61-3.26-3.32-7.61-5.16-12.26-5.21h-.16Z"/>
  </g>
  <polygon class="cls-1" points="847.87 1132.36 847.87 930.69 884.04 930.69 884.04 1096.16 981.4 1096.16 981.4 1132.36 847.87 1132.36"/>
  <path class="cls-1" d="M1061.42,1132.37c-.45,0-.89,0-1.34-.01-43.61,0-79.08-35.46-79.08-79.06s35.48-79.06,79.08-79.06c32.39,0,61.04,19.36,73.22,49.38l-104.94,60.58,11.16,6.21c6.28,3.49,13.36,5.33,20.5,5.33,12.58,0,24.82-5.81,32.85-15.58h37.01c-10.26,38.45-41.99,52.2-68.48,52.2ZM1056.55,1010.84c-23.05,0-42.14,18.7-42.56,41.69l-.23,12.8,74.36-42.94-11.15-6.21c-6.38-3.55-13.25-5.35-20.42-5.35Z"/>
  <path class="cls-1" d="M1212.25,1132.87c-28.7,0-52.06-23.35-52.06-52.06v-7.24h-.03v-63.51h-20.8v-36.17h20.8v-43.2h36.18v43.2h25.98v36.17h-25.98v70.75c0,8.61,7.27,15.88,15.88,15.88.57,0,1.28,0,2.04-.07l16.44,33.16c-5.64,2.07-11.69,3.08-18.46,3.08Z"/>
  <path class="cls-1" d="M1360.72,1132.36v-31.78l-12.41,12.68c-12.06,12.32-27.44,19.11-43.31,19.11-36.71,0-66.57-35.54-66.57-79.24v-79.24h36.18v79.24c0,23.74,19.32,43.06,43.06,43.06s43.06-19.32,43.06-43.06v-79.24h36.17v158.47h-36.17Z"/>
  <rect class="cls-1" x="1422.76" y="973.89" width="36.17" height="158.47"/>
  <path class="cls-2" d="M1450.99,938.59c-2.66-2.71-6.22-4.22-10.02-4.25-3.79-.02-7.38,1.41-10.09,4.08-5.59,5.49-5.67,14.51-.18,20.11,2.66,2.71,6.22,4.22,10.02,4.25.04,0,.09,0,.13,0,3.75,0,7.28-1.44,9.96-4.08,5.59-5.49,5.67-14.51.18-20.11Z"/>
  <path class="cls-2" d="M1453.82,935.85c-3.4-3.46-7.95-5.4-12.81-5.44-4.84-.03-9.44,1.81-12.9,5.21-7.15,7.03-7.25,18.56-.23,25.72,3.4,3.46,7.95,5.4,12.81,5.44.05,0,.11,0,.16,0,4.8,0,9.31-1.85,12.74-5.21,7.15-7.03,7.25-18.56.23-25.72Z"/>
  <path class="cls-1" d="M1555.21,1132.36c-43.69,0-79.24-35.54-79.24-79.24s35.54-79.24,79.24-79.24c25.61,0,49.69,12.53,64.64,33.56l-31.53,18.2c-8.14-9.78-20.45-15.59-33.1-15.59-23.74,0-43.06,19.32-43.06,43.06s19.32,43.06,43.06,43.06c12.63,0,24.94-5.81,33.1-15.59l31.54,18.21c-14.93,21.04-39.01,33.56-64.64,33.56Z"/>
</svg>